<?xml version="1.0" standalone="no"?>
<!DOCTYPE svg PUBLIC "-//W3C//DTD SVG 20010904//EN"
 "http://www.w3.org/TR/2001/REC-SVG-20010904/DTD/svg10.dtd">
<svg version="1.0" xmlns="http://www.w3.org/2000/svg"
 width="366.000000pt" height="366.000000pt" viewBox="0 0 366.000000 366.000000"
 preserveAspectRatio="xMidYMid meet">
<metadata>
Created by potrace 1.11, written by Peter Selinger 2001-2013
</metadata>
<g transform="translate(0.000000,366.000000) scale(0.100000,-0.100000)"
fill="#000000" stroke="none">
<path d="M1770 3613 c-834 -36 -1527 -626 -1689 -1439 -25 -127 -32 -202 -32
-350 0 -124 5 -179 27 -314 30 -185 119 -422 226 -598 29 -48 56 -91 60 -97 4
-5 27 -35 50 -65 135 -176 296 -322 480 -436 171 -106 420 -205 573 -230 22
-3 42 -7 45 -9 3 -2 33 -7 65 -10 33 -4 69 -9 80 -11 26 -6 285 -5 355 1 76 6
239 40 337 69 556 167 1001 606 1182 1166 12 36 23 74 26 85 31 149 45 221 50
275 7 69 8 311 1 345 -2 11 -7 46 -11 79 -37 308 -187 648 -394 896 -306 366
-766 605 -1223 636 -134 9 -147 9 -208 7z m240 -77 c56 -6 63 -7 172 -27 147
-26 411 -131 547 -217 282 -179 503 -423 641 -707 50 -104 103 -245 121 -324
6 -25 13 -55 15 -66 25 -108 38 -235 38 -375 -1 -95 -11 -237 -19 -250 -1 -3
-6 -26 -9 -51 -17 -124 -75 -298 -153 -454 -263 -529 -782 -888 -1363 -942
-505 -46 -991 121 -1352 465 -257 245 -442 583 -502 917 -3 17 -8 41 -11 54
-31 154 -24 428 15 619 129 635 625 1154 1254 1312 105 26 142 33 246 46 25 3
46 7 47 8 5 4 261 -2 313 -8z"/>
<path d="M1597 3304 c-1 -1 -29 -5 -62 -9 -33 -3 -61 -7 -61 -8 -4 -5 44 -268
49 -273 3 -4 12 -4 20 -1 11 4 12 17 6 59 -3 29 -4 56 0 60 3 3 33 9 66 12 33
3 61 5 62 6 1 0 0 7 -3 15 -5 12 -19 13 -74 9 l-68 -6 -4 47 c-2 27 1 49 7 51
5 2 39 5 75 8 36 3 66 5 68 6 1 0 2 7 2 15 0 12 -10 15 -40 13 -22 -1 -42 -3
-43 -4z"/>
<path d="M1828 3297 c-57 -14 -98 -66 -98 -123 0 -87 59 -142 160 -149 46 -3
68 1 101 18 88 46 106 159 35 219 -43 36 -132 52 -198 35z m178 -72 c28 -37
30 -64 8 -111 -17 -35 -81 -68 -119 -60 -11 3 -28 5 -39 5 -10 1 -33 16 -52
35 -38 38 -44 77 -19 125 35 69 170 72 221 6z"/>
<path d="M1327 3253 c-2 -5 12 -67 32 -138 30 -109 39 -130 54 -127 9 2 17 6
17 10 0 3 -14 64 -31 134 -26 107 -34 128 -49 128 -10 0 -21 -3 -23 -7z"/>
<path d="M1183 3213 c-19 -7 -17 -18 26 -131 22 -57 34 -99 28 -94 -25 20
-133 76 -197 102 -60 25 -69 26 -93 13 -15 -7 -27 -16 -27 -19 0 -7 120 -216
130 -228 5 -5 16 -6 25 -2 14 5 8 22 -40 111 l-56 105 53 -21 c29 -11 92 -41
139 -65 63 -32 92 -42 107 -37 20 8 19 11 -24 138 -24 71 -44 131 -44 132 0 4
-13 2 -27 -4z"/>
<path d="M2193 3206 c-61 -28 -90 -114 -59 -174 44 -85 186 -129 263 -82 133
81 59 253 -114 266 -38 3 -69 -1 -90 -10z m165 -43 c44 -24 73 -75 62 -113
-15 -50 -22 -59 -55 -74 -43 -21 -71 -20 -122 3 -92 42 -108 143 -31 192 39
24 88 21 146 -8z"/>
<path d="M2562 3023 c-17 -32 -48 -86 -67 -120 l-35 -61 63 -40 c97 -61 168
-73 223 -37 33 21 64 73 64 106 0 29 -39 93 -73 122 -32 26 -126 87 -135 87
-4 0 -22 -26 -40 -57z m123 -31 c82 -62 100 -127 49 -183 -36 -40 -120 -33
-189 15 -16 12 -31 22 -33 22 -6 3 109 184 116 184 4 0 30 -17 57 -38z"/>
<path d="M749 2978 c-40 -29 -74 -58 -76 -63 -2 -6 5 -20 14 -30 10 -11 49
-57 87 -102 38 -46 72 -83 76 -83 4 0 15 9 25 20 10 11 40 34 66 51 27 17 49
35 49 39 0 24 -25 17 -75 -20 l-56 -41 -20 23 c-47 56 -50 52 65 130 7 5 7 11
-1 19 -9 9 -25 2 -70 -30 l-58 -41 -22 28 c-12 15 -22 32 -23 38 0 6 25 29 55
49 49 34 71 65 46 65 -5 0 -42 -24 -82 -52z"/>
<path d="M2405 2666 c-6 -7 -70 -86 -143 -176 -164 -200 -222 -282 -228 -318
-2 -15 2 -50 11 -77 l15 -50 -95 -140 c-52 -77 -105 -152 -117 -168 l-23 -27
-110 160 c-60 88 -111 167 -113 176 -2 8 1 20 7 27 20 25 24 111 7 175 -25
100 -62 161 -150 247 -91 90 -186 145 -263 152 -67 7 -86 -16 -91 -106 -8
-135 65 -317 168 -420 71 -70 136 -103 217 -110 l62 -6 120 -169 121 -169 -37
-51 c-158 -219 -233 -307 -354 -412 -60 -53 -119 -109 -131 -126 -20 -29 -21
-35 -10 -87 13 -63 37 -89 79 -85 15 1 40 2 55 3 49 2 76 44 139 216 32 87 68
159 121 245 57 93 163 250 168 250 6 0 99 -144 176 -271 53 -86 72 -130 134
-293 41 -108 72 -143 134 -147 74 -6 87 1 107 58 26 78 14 109 -73 185 -180
158 -268 256 -407 455 l-43 62 124 173 123 172 52 2 c62 1 92 19 138 82 61 83
277 451 273 465 -2 8 -73 -84 -158 -205 -85 -121 -157 -221 -160 -223 -3 -2
-12 0 -18 4 -12 7 31 73 274 425 18 27 31 52 28 55 -3 3 -8 0 -12 -6 -4 -6
-18 -25 -32 -43 -13 -17 -31 -42 -40 -55 -77 -119 -248 -344 -259 -342 -8 1
-15 5 -15 9 -1 3 69 109 154 234 167 246 166 244 153 244 -4 0 -80 -101 -168
-225 -88 -123 -165 -226 -172 -229 -35 -15 -6 39 118 219 77 110 146 212 154
228 16 28 8 38 -10 13z"/>
<path d="M650 1063 c-63 -42 -110 -78 -103 -80 6 -2 32 11 57 29 l47 32 22
-27 c12 -15 33 -28 47 -29 25 -2 79 27 81 43 1 5 2 15 3 22 2 10 -31 87 -37
87 -1 0 -54 -35 -117 -77z m130 21 c17 -30 7 -51 -33 -74 -25 -14 -28 -13 -54
13 -24 24 -26 29 -12 37 9 5 27 18 40 29 32 27 43 26 59 -5z"/>
<path d="M2880 1123 c0 -5 8 -21 18 -38 10 -16 23 -43 30 -58 l12 -28 -73 7
c-39 3 -68 2 -64 -2 4 -4 41 -11 82 -15 65 -6 82 -12 126 -44 27 -21 53 -35
56 -31 4 3 4 7 2 9 -92 64 -116 88 -143 145 -26 54 -46 78 -46 55z"/>
<path d="M819 1018 c-8 -7 -54 -46 -102 -87 -49 -40 -86 -75 -83 -78 3 -3 26
12 52 33 l46 38 19 -23 c27 -33 24 -44 -21 -85 -40 -36 -47 -46 -32 -46 15 0
82 70 82 85 0 8 3 15 8 16 69 7 111 61 86 110 -20 40 -39 52 -55 37z m51 -66
c0 -19 -46 -62 -68 -62 -10 0 -27 9 -38 21 -19 21 -19 21 25 61 l45 39 18 -23
c10 -13 18 -29 18 -36z"/>
<path d="M1567 1003 c-4 -3 -7 -18 -7 -31 0 -29 6 -27 12 3 2 11 14 23 28 26
l25 7 -26 1 c-14 0 -29 -2 -32 -6z"/>
<path d="M1643 1003 c-22 -8 -14 -48 13 -72 26 -22 29 -51 6 -59 -6 -2 -16 7
-21 20 -10 23 -10 23 -10 1 -1 -22 30 -40 49 -28 20 12 10 54 -16 71 -16 11
-24 24 -22 37 4 30 26 33 38 5 l10 -23 -3 25 c-2 24 -20 34 -44 23z"/>
<path d="M1712 1003 c9 -2 19 -12 21 -21 4 -16 5 -16 6 0 0 9 11 19 24 21 12
2 2 4 -23 4 -25 1 -37 -1 -28 -4z"/>
<path d="M1857 1003 c-4 -3 -7 -13 -7 -22 0 -11 3 -10 15 5 12 16 16 17 24 5
11 -17 5 -37 -21 -70 -28 -36 -24 -61 10 -60 23 2 24 2 5 6 -24 5 -31 27 -12
39 6 3 18 22 26 41 11 27 11 38 2 49 -12 15 -31 18 -42 7z"/>
<path d="M1925 999 c-9 -13 -8 -93 1 -121 8 -25 34 -19 45 10 6 15 5 21 -1 17
-6 -3 -10 -13 -10 -21 0 -9 -6 -14 -12 -11 -17 5 -18 119 -1 124 6 2 14 -6 16
-19 5 -21 5 -21 4 2 -2 26 -30 39 -42 19z"/>
<path d="M1996 994 c-9 -24 -7 -31 4 -14 7 11 10 -6 11 -55 1 -38 4 -57 6 -42
4 23 9 28 24 24 16 -4 18 -3 9 8 -9 11 -7 19 12 38 12 13 24 31 24 40 3 29
-10 19 -30 -24 -27 -56 -36 -57 -36 -5 0 46 -12 61 -24 30z"/>
<path d="M2747 942 c-15 -15 -27 -31 -27 -34 0 -3 45 -45 100 -92 55 -47 100
-82 100 -77 0 5 -18 25 -40 45 -41 37 -44 58 -9 76 28 15 36 13 79 -26 22 -20
40 -32 40 -26 0 17 -69 72 -91 72 -12 0 -23 10 -29 26 -13 33 -49 63 -76 64
-11 0 -32 -13 -47 -28z m109 -35 c7 -22 -14 -67 -30 -67 -6 0 -29 16 -51 35
l-40 35 28 25 c28 25 29 25 58 8 16 -10 32 -26 35 -36z"/>
<path d="M2077 953 c-10 -9 -9 -23 1 -23 5 0 9 7 9 15 0 17 -1 18 -10 8z"/>
<path d="M1730 940 c0 -5 5 -10 11 -10 5 0 7 5 4 10 -3 6 -8 10 -11 10 -2 0
-4 -4 -4 -10z"/>
<path d="M1966 933 c-6 -14 -5 -15 5 -6 7 7 10 15 7 18 -3 3 -9 -2 -12 -12z"/>
<path d="M1560 932 c0 -5 14 -7 30 -4 17 2 30 6 30 8 0 2 -13 4 -30 4 -16 0
-30 -4 -30 -8z"/>
<path d="M835 837 c-44 -45 -84 -88 -89 -95 -8 -14 38 -72 58 -72 5 0 -4 15
-22 33 l-32 33 38 37 c21 20 42 37 48 37 5 0 18 -11 28 -25 10 -14 24 -25 29
-25 6 0 -3 15 -21 33 l-32 33 39 38 c39 38 40 39 65 22 15 -9 26 -21 26 -26 0
-6 5 -10 12 -10 7 0 -3 16 -22 35 -19 19 -36 35 -39 34 -4 0 -42 -37 -86 -82z"/>
<path d="M2072 898 c5 -35 15 -46 14 -14 -1 14 -5 29 -10 33 -4 4 -6 -4 -4
-19z"/>
<path d="M1561 888 c-1 -25 2 -28 32 -27 29 2 29 2 5 6 -18 3 -28 12 -31 26
-4 18 -5 17 -6 -5z"/>
<path d="M2671 859 c-18 -17 -31 -34 -29 -38 2 -5 42 -50 89 -100 l87 -92 36
32 c20 17 34 34 31 37 -3 3 -19 -8 -36 -24 l-30 -29 -41 44 -40 45 34 28 c18
15 28 28 23 28 -6 0 -22 -11 -36 -24 l-26 -24 -38 38 c-35 36 -43 70 -16 70 6
0 15 9 21 20 15 27 8 25 -29 -11z"/>
<path d="M916 739 c-42 -55 -76 -105 -74 -110 2 -6 28 22 57 61 30 39 55 69
57 67 2 -2 -12 -42 -31 -90 -18 -48 -30 -87 -26 -87 5 0 19 8 32 18 64 48 129
93 129 89 0 -2 -25 -35 -55 -73 -30 -38 -50 -71 -44 -73 6 -2 15 3 20 10 12
21 38 55 96 128 29 36 49 67 43 69 -5 2 -49 -26 -97 -62 -48 -35 -89 -61 -91
-56 -2 4 15 52 38 105 22 54 40 99 40 101 0 18 -28 -11 -94 -97z"/>
<path d="M2617 813 c-3 -4 15 -53 39 -107 24 -55 43 -100 42 -102 -2 -1 -43
29 -91 68 -49 38 -91 67 -94 64 -4 -3 5 -14 18 -25 13 -10 60 -48 104 -85 98
-81 112 -85 81 -20 -8 16 -31 70 -51 119 -41 99 -41 100 -48 88z"/>
<path d="M1087 634 c-72 -111 -84 -134 -71 -134 12 0 147 217 142 229 -1 5
-34 -38 -71 -95z"/>
<path d="M2480 716 c0 -3 22 -37 48 -78 26 -40 58 -90 71 -110 12 -21 27 -38
33 -38 10 0 -3 23 -85 153 -42 65 -67 92 -67 73z"/>
<path d="M1122 607 c-29 -56 -52 -110 -52 -119 0 -10 12 -25 26 -35 23 -15 29
-15 51 -2 27 15 142 219 124 219 -5 0 -34 -45 -63 -100 -54 -102 -67 -115 -99
-105 -30 10 -23 41 31 140 51 95 55 105 43 105 -5 0 -32 -46 -61 -103z"/>
<path d="M2380 653 c0 -7 117 -222 125 -231 2 -2 25 9 51 24 26 15 42 30 36
32 -7 2 -27 -6 -46 -17 l-33 -21 -59 110 c-52 97 -74 127 -74 103z"/>
<path d="M1245 525 c-27 -69 -45 -128 -42 -132 4 -3 12 7 18 23 6 16 22 56 35
89 19 50 30 64 25 33 0 -4 -3 -46 -6 -95 l-5 -88 22 29 c13 15 42 53 66 83 23
31 42 53 42 50 0 -6 -60 -158 -68 -171 -2 -5 1 -7 8 -4 13 4 109 238 103 251
-5 8 -24 -14 -101 -116 -44 -58 -56 -66 -54 -37 1 14 14 149 17 178 8 62 -13
31 -60 -93z"/>
<path d="M2310 632 c-19 -9 -36 -17 -38 -18 -4 -2 30 -83 77 -186 l31 -67 40
18 c22 10 44 22 48 26 6 7 -2 6 -63 -11 -17 -4 -25 3 -41 40 -24 50 -23 52 26
73 19 8 30 17 24 19 -6 3 -26 -2 -44 -10 l-34 -14 -23 51 c-13 27 -22 51 -21
52 2 1 18 7 36 15 35 13 52 30 30 29 -7 0 -29 -8 -48 -17z"/>
<path d="M2168 583 c-10 -2 -18 -12 -18 -21 0 -13 46 -159 75 -239 6 -17 61 3
80 30 16 23 14 40 -17 132 -34 103 -51 116 -120 98z m97 -83 c14 -37 28 -84
32 -103 5 -32 2 -37 -26 -51 -25 -13 -32 -14 -36 -4 -3 7 -20 59 -39 115 l-34
102 26 9 c15 5 32 7 39 5 7 -3 24 -35 38 -73z"/>
<path d="M1539 549 c0 -8 -2 -21 -4 -29 -1 -8 -5 -31 -9 -50 -3 -19 -10 -58
-15 -86 -5 -28 -11 -55 -12 -60 -1 -5 -1 -16 0 -24 3 -22 19 21 26 72 4 24 8
44 9 45 1 1 18 -2 39 -7 21 -4 39 -4 43 1 3 5 -13 12 -36 15 -44 7 -48 18 -30
85 10 36 11 37 47 28 34 -7 53 -5 42 5 -2 2 -25 7 -51 11 -37 6 -48 4 -49 -6z"/>
<path d="M1957 542 c-17 -3 -18 -11 -13 -70 6 -56 15 -117 24 -154 1 -5 2 -18
2 -29 0 -19 4 -21 36 -16 50 8 64 23 64 70 0 57 -20 163 -34 182 -12 17 -47
24 -79 17z m59 -20 c17 -11 26 -49 38 -154 6 -53 -9 -78 -48 -78 -21 0 -24 6
-30 58 -4 31 -8 68 -11 82 -12 74 -12 89 -2 94 18 7 41 6 53 -2z"/>
<path d="M1676 525 c-17 -18 -24 -52 -30 -148 -4 -59 -2 -71 17 -91 19 -20 27
-22 53 -15 40 11 43 21 51 139 5 94 5 98 -18 114 -29 20 -53 20 -73 1z m72
-22 c9 -17 7 -101 -3 -168 -7 -47 -50 -70 -75 -40 -15 18 -8 172 9 204 14 26
57 28 69 4z"/>
<path d="M1812 518 c-16 -16 -16 -195 1 -228 16 -33 59 -38 86 -11 19 19 20
30 17 121 -2 59 -9 107 -16 115 -15 18 -71 20 -88 3z m72 -14 c15 -14 20 -62
18 -172 0 -60 -61 -78 -80 -23 -15 45 -9 190 8 201 22 14 36 12 54 -6z"/>
</g>
</svg>
